<svg data-v-70b83f88="" version="1.0" xmlns="http://www.w3.org/2000/svg" xmlns:xlink="http://www.w3.org/1999/xlink" width="100%" height="100%" viewBox="0 0 340.000000 250.000000" preserveAspectRatio="xMidYMid meet" color-interpolation-filters="sRGB" style="margin: auto;"> <rect data-v-70b83f88="" x="0" y="0" width="100%" height="100%" fill="#fff" fill-opacity="1" class="background"></rect> <rect data-v-70b83f88="" x="0" y="0" width="100%" height="100%" fill="url(#watermark)" fill-opacity="1" class="watermarklayer"></rect> <g data-v-70b83f88="" fill="#333" class="icon-text-wrapper icon-svg-group iconsvg" transform="translate(49.599998474121094,93.37111282348633)"><g class="iconsvg-imagesvg" transform="translate(0,0)"><g><rect fill="#333" fill-opacity="0" stroke-width="2" x="0" y="0" width="60" height="63.257775434897205" class="image-rect"></rect> <svg x="0" y="0" width="60" height="63.257775434897205" filtersec="colorsb3615540889" class="image-svg-svg primary" style="overflow: visible;"><svg xmlns="http://www.w3.org/2000/svg" viewBox="0 0 94.8499984741211 100.0000228881836"><path d="M94.85 43.38v42A14.7 14.7 0 0 1 80.18 100h-36.4L79 63.17l4.18 5.71L93.28 45zM73.53 0h6.65a14.7 14.7 0 0 1 14.67 14.64v13.23L84.76 38.44 65 44.12l4.88 6.62L22.69 100h-8A14.67 14.67 0 0 1 0 85.36v-5.25l18.45-19.28 4.18 5.71 10.06-23.86zM14.64 0h44.05L24.16 36.06 4.38 41.78l4.88 6.62L0 58.05V14.64A14.67 14.67 0 0 1 14.64 0z" fill="#f60"></path><path fill="#333" d="M18.65 57.32L0 76.84V61.33l12.2-12.77-4.08-5.51 25-7.19L22.09 62l-3.44-4.68zM79.28 59.69L40.67 100H25.84l46.95-49.06-4.07-5.55 25-7.19-11.03 26.14-3.41-4.65z"></path></svg></svg> <!----></g></g> <g transform="translate(67,2.6988868713378906)"><g data-gra="path-name" fill-rule="" class="tp-name iconsvg-namesvg"><g transform="scale(1)"><g><path d="M30.23-29.34L30.23-29.34Q30.23-25.21 28.57-22.14 26.92-19.07 23.88-17.42 20.84-15.76 16.77-15.76L16.77-15.76 7.32-15.76 7.32 2.66 4.72 2.66 4.72-42.92 16.77-42.92Q20.84-42.92 23.88-41.27 26.92-39.61 28.57-36.54 30.23-33.47 30.23-29.34ZM27.57-29.34L27.57-29.34Q27.57-34.42 24.65-37.4 21.73-40.38 16.71-40.38L16.71-40.38 7.32-40.38 7.32-18.3 16.71-18.3Q21.73-18.3 24.65-21.25 27.57-24.2 27.57-29.34ZM51.95-27.98L43.27-27.98 43.27-3.84Q43.27-1.48 44.63-0.27 45.99 0.94 48.35 0.94L48.35 0.94Q50.06 0.94 51.95 0.47L51.95 0.47 51.95 2.72Q50.59 3.25 48.29 3.25L48.29 3.25Q44.87 3.25 42.8 1.36 40.73-0.53 40.73-3.9L40.73-3.9 40.73-27.98 35.01-27.98 35.01-30.34 40.73-30.34 40.73-39.08 43.27-39.08 43.27-30.34 51.95-30.34 51.95-27.98ZM83.36-40.38L61.69-40.38 61.69-22.61 82-22.61 82-20.07 61.69-20.07 61.69 0.12 83.36 0.12 83.36 2.66 59.09 2.66 59.09-42.92 83.36-42.92 83.36-40.38ZM117.13-22.43L117.13-5.25Q117.13-0.3 117.3 2.66L117.3 2.66 115.12 2.66Q114.88 0.59 114.77-5.2L114.77-5.2Q113.29-1.18 110.4 1.03 107.5 3.25 103.49 3.25L103.49 3.25Q99.59 3.25 96.61 1.09 93.63-1.06 91.98-4.93 90.32-8.8 90.32-13.81L90.32-13.81Q90.32-18.83 91.98-22.73 93.63-26.63 96.61-28.78 99.59-30.93 103.49-30.93L103.49-30.93Q107.5-30.93 110.4-28.69 113.29-26.45 114.77-22.49L114.77-22.49Q114.88-28.28 115.12-30.34L115.12-30.34 117.3-30.34Q117.13-27.45 117.13-22.43L117.13-22.43ZM114.71-13.81L114.71-13.81Q114.71-18.18 113.32-21.55 111.93-24.91 109.45-26.74 106.97-28.57 103.78-28.57L103.78-28.57Q100.6-28.57 98.15-26.71 95.7-24.85 94.31-21.52 92.92-18.18 92.92-13.81L92.92-13.81Q92.92-9.5 94.31-6.17 95.7-2.83 98.18-0.97 100.66 0.89 103.78 0.89L103.78 0.89Q106.97 0.89 109.45-0.97 111.93-2.83 113.32-6.17 114.71-9.5 114.71-13.81ZM125.57-22.37L125.57-22.37Q125.57-26.15 128.34-28.54 131.12-30.93 135.49-30.93L135.49-30.93Q139.38-30.93 142.01-29.19 144.64-27.45 145.17-24.44L145.17-24.44 142.98-23.44Q142.34-26.15 140.56-27.36 138.79-28.57 135.49-28.57L135.49-28.57Q132.06-28.57 130.11-26.95 128.17-25.33 128.17-22.37L128.17-22.37Q128.17-19.72 129.94-18.36 131.71-17 136.2-16.18L136.2-16.18Q141.51-15.23 143.93-12.81 146.35-10.39 146.35-6.14L146.35-6.14Q146.35-1.95 143.37 0.65 140.39 3.25 135.61 3.25L135.61 3.25Q131 3.25 128.05 1.21 125.1-0.83 124.15-4.6L124.15-4.6 126.34-5.55Q127.28-2.18 129.52-0.65 131.77 0.89 135.61 0.89L135.61 0.89Q139.32 0.89 141.57-1.03 143.81-2.95 143.81-6.14L143.81-6.14Q143.81-9.45 141.95-11.13 140.09-12.81 135.55-13.7L135.55-13.7Q130.35-14.7 127.96-16.8 125.57-18.89 125.57-22.37ZM175.99-30.34L178.52-30.34 160.75 14.94 158.1 14.94 163.47 2.36 150.72-30.34 153.43-30.34 164.59-1 175.99-30.34Z" transform="translate(-4.71999979019165, 42.91999816894531)"></path></g> <!----> <!----> <!----> <!----> <!----> <!----> <!----></g></g> <!----></g></g><defs v-gra="od"></defs></svg>